<svg width="33" height="33" viewBox="0 0 33 33" fill="none" xmlns="http://www.w3.org/2000/svg">
<path fill-rule="evenodd" clip-rule="evenodd" d="M9.96878 13.75C9.96878 10.1429 12.8929 7.21875 16.5 7.21875C20.1071 7.21875 23.0313 10.1429 23.0313 13.75C23.0313 17.3571 20.1071 20.2812 16.5 20.2812C12.8929 20.2812 9.96878 17.3571 9.96878 13.75ZM16.5 9.28125C14.032 9.28125 12.0313 11.282 12.0313 13.75C12.0313 16.218 14.032 18.2188 16.5 18.2188C18.9681 18.2188 20.9688 16.218 20.9688 13.75C20.9688 11.282 18.9681 9.28125 16.5 9.28125Z" fill="white"/>
<path fill-rule="evenodd" clip-rule="evenodd" d="M4.84603 12.1782C5.33323 6.26758 10.2724 1.71875 16.2031 1.71875H16.797C22.7276 1.71875 27.6668 6.26758 28.154 12.1782C28.4158 15.3532 27.435 18.506 25.4183 20.9723L18.8279 29.0322C17.6248 30.5036 15.3753 30.5036 14.1722 29.0322L7.58173 20.9723C5.56508 18.506 4.58432 15.3532 4.84603 12.1782ZM16.2031 3.78125C11.3458 3.78125 7.30058 7.50678 6.90156 12.3476C6.68374 14.9901 7.50001 17.6141 9.17841 19.6667L15.7689 27.7267C16.1468 28.1888 16.8533 28.1888 17.2312 27.7267L23.8217 19.6667C25.5001 17.6141 26.3163 14.9901 26.0985 12.3476C25.6995 7.50678 21.6542 3.78125 16.797 3.78125H16.2031Z" fill="white"/>
</svg>
