<svg width="55" height="55" viewBox="0 0 55 55" fill="none" xmlns="http://www.w3.org/2000/svg">
<path d="M27.5002 2.86458C28.4494 2.86458 29.2189 3.63409 29.2189 4.58333V6.87499C29.2189 7.82423 28.4494 8.59374 27.5002 8.59374C26.5509 8.59374 25.7814 7.82423 25.7814 6.87499V4.58333C25.7814 3.63409 26.5509 2.86458 27.5002 2.86458Z" fill="white"/>
<path fill-rule="evenodd" clip-rule="evenodd" d="M14.3231 27.5C14.3231 20.2225 20.2227 14.3229 27.5002 14.3229C34.7777 14.3229 40.6772 20.2225 40.6772 27.5C40.6772 34.7775 34.7777 40.6771 27.5002 40.6771C20.2227 40.6771 14.3231 34.7775 14.3231 27.5ZM27.5002 17.7604C22.1211 17.7604 17.7606 22.121 17.7606 27.5C17.7606 32.879 22.1211 37.2396 27.5002 37.2396C32.8792 37.2396 37.2397 32.879 37.2397 27.5C37.2397 22.121 32.8792 17.7604 27.5002 17.7604Z" fill="white"/>
<path d="M12.511 10.0802C11.8398 9.40896 10.7515 9.40896 10.0803 10.0802C9.40911 10.7514 9.40911 11.8396 10.0803 12.5109L11.7008 14.1313C12.372 14.8025 13.4602 14.8025 14.1315 14.1313C14.8027 13.4601 14.8027 12.3718 14.1315 11.7006L12.511 10.0802Z" fill="white"/>
<path d="M52.1356 27.5C52.1356 28.4492 51.3661 29.2187 50.4168 29.2187H48.1252C47.1759 29.2187 46.4064 28.4492 46.4064 27.5C46.4064 26.5508 47.1759 25.7812 48.1252 25.7812H50.4168C51.3661 25.7812 52.1356 26.5508 52.1356 27.5Z" fill="white"/>
<path d="M44.92 12.5108C45.5912 11.8396 45.5912 10.7514 44.92 10.0802C44.2488 9.40894 43.1605 9.40894 42.4893 10.0802L40.8688 11.7006C40.1976 12.3718 40.1976 13.4601 40.8688 14.1313C41.5401 14.8025 42.6283 14.8025 43.2995 14.1313L44.92 12.5108Z" fill="white"/>
<path d="M27.5002 46.4062C28.4494 46.4062 29.2189 47.1758 29.2189 48.125V50.4167C29.2189 51.3659 28.4494 52.1354 27.5002 52.1354C26.5509 52.1354 25.7814 51.3659 25.7814 50.4167V48.125C25.7814 47.1758 26.5509 46.4062 27.5002 46.4062Z" fill="white"/>
<path d="M43.2997 40.8687C42.6285 40.1975 41.5402 40.1975 40.869 40.8687C40.1978 41.5399 40.1978 42.6282 40.869 43.2994L42.4894 44.9198C43.1607 45.5911 44.2489 45.5911 44.9201 44.9198C45.5913 44.2486 45.5913 43.1604 44.9201 42.4892L43.2997 40.8687Z" fill="white"/>
<path d="M8.59391 27.5C8.59391 28.4492 7.8244 29.2187 6.87516 29.2187H4.5835C3.63426 29.2187 2.86475 28.4492 2.86475 27.5C2.86475 26.5508 3.63426 25.7812 4.5835 25.7812H6.87516C7.8244 25.7812 8.59391 26.5508 8.59391 27.5Z" fill="white"/>
<path d="M14.1313 43.2994C14.8025 42.6282 14.8025 41.5399 14.1313 40.8687C13.4601 40.1975 12.3718 40.1975 11.7006 40.8687L10.0802 42.4891C9.40896 43.1604 9.40896 44.2486 10.0802 44.9198C10.7514 45.591 11.8396 45.591 12.5108 44.9198L14.1313 43.2994Z" fill="white"/>
</svg>
